<svg xmlns="http://www.w3.org/2000/svg" viewBox="0 0 229.73 212.56"><defs><style>.cls-1{fill:#006661;}</style></defs><title>Recurso 6</title><g id="Capa_2" data-name="Capa 2"><g id="Capa_1-2" data-name="Capa 1"><path class="cls-1" d="M175.89,134.57l-.75-.4c-1.84,1.46-3,3.73-4.09,5.74-.34.6-.67,1.21-1,1.81l.81.44.25-.31a46,46,0,0,0,4.58-6.84Z"/><circle class="cls-1" cx="115.03" cy="31.11" r="31.11"/><circle class="cls-1" cx="115.03" cy="120.72" r="40.35"/><path class="cls-1" d="M176.67,183a3.16,3.16,0,0,0-4,.26A84.17,84.17,0,0,1,55.46,181.4l-.14-.14q-1.09.93-2.25,1.78a3.13,3.13,0,0,0-.29,4.79,90.7,90.7,0,0,0,124.34.14,3.13,3.13,0,0,0-.3-4.81Z"/><circle class="cls-1" cx="198.62" cy="152.94" r="31.11"/><circle class="cls-1" cx="31.11" cy="152.94" r="31.11"/><path class="cls-1" d="M74.5,40.65a90.78,90.78,0,0,0-49.7,71.68,3.13,3.13,0,0,0,3.34,3.46h.19a3.16,3.16,0,0,0,2.91-2.85,84.38,84.38,0,0,1,46.16-66.5,3.12,3.12,0,0,0,1.54-3.78l-.06-.19A3.13,3.13,0,0,0,74.5,40.65Z"/><path class="cls-1" d="M150,42l-.06.19a3.12,3.12,0,0,0,1.58,3.76A84.15,84.15,0,0,1,198.81,113a3.16,3.16,0,0,0,2.88,2.84l.19,0a3.14,3.14,0,0,0,3.37-3.46A90.79,90.79,0,0,0,154.4,40.07,3.13,3.13,0,0,0,150,42Z"/><rect class="cls-1" x="107.73" y="68.22" width="13" height="6.37" rx="3.18" ry="3.18" transform="translate(185.64 -42.83) rotate(90)"/><rect class="cls-1" x="61.73" y="135.22" width="13" height="6.37" rx="3.18" ry="3.18" transform="translate(-52.1 41.8) rotate(-25)"/><rect class="cls-1" x="154.73" y="134.22" width="13" height="6.37" rx="3.18" ry="3.18" transform="translate(249.29 330.07) rotate(-155)"/></g></g></svg>